<svg xmlns="http://www.w3.org/2000/svg" viewBox="0 0 32 32" fill="none">
  <rect width="32" height="32" rx="7" fill="#0b6bd3"/>
  <g stroke="#ffffff" stroke-width="1.7" stroke-linecap="round">
    <g><line x1="16" y1="5" x2="16" y2="27"/><line x1="16" y1="9" x2="12.8" y2="11.7"/><line x1="16" y1="9" x2="19.2" y2="11.7"/><line x1="16" y1="23" x2="12.8" y2="20.3"/><line x1="16" y1="23" x2="19.2" y2="20.3"/></g>
    <g transform="rotate(60 16 16)"><line x1="16" y1="5" x2="16" y2="27"/><line x1="16" y1="9" x2="12.8" y2="11.7"/><line x1="16" y1="9" x2="19.2" y2="11.7"/><line x1="16" y1="23" x2="12.8" y2="20.3"/><line x1="16" y1="23" x2="19.2" y2="20.3"/></g>
    <g transform="rotate(120 16 16)"><line x1="16" y1="5" x2="16" y2="27"/><line x1="16" y1="9" x2="12.8" y2="11.7"/><line x1="16" y1="9" x2="19.2" y2="11.7"/><line x1="16" y1="23" x2="12.8" y2="20.3"/><line x1="16" y1="23" x2="19.2" y2="20.3"/></g>
  </g>
</svg>
